<?xml version="1.0" encoding="utf-8"?>
<!-- Svg Vector Icons : http://www.onlinewebfonts.com/icon -->
<!DOCTYPE svg PUBLIC "-//W3C//DTD SVG 1.1//EN" "http://www.w3.org/Graphics/SVG/1.1/DTD/svg11.dtd">
<svg version="1.1" xmlns="http://www.w3.org/2000/svg" xmlns:xlink="http://www.w3.org/1999/xlink" x="0px" y="0px" viewBox="0 0 256 256" enable-background="new 0 0 256 256" xml:space="preserve">
<metadata> Svg Vector Icons : http://www.onlinewebfonts.com/icon </metadata>
<g><g><g><path fill="#000000" d="M120,2C65.5,5.5,20.2,46.6,11.5,100.5c-7.2,44.8,11.7,89.6,48.8,115.7c11.2,7.9,28.1,15.4,40.5,18.1l1.7,0.4v-12.9v-12.8l-4.6-1.5c-6.2-2.1-14.4-6-20-9.6c-21.7-14.1-35.8-34.8-41.4-60.4c-1-4.8-1.2-7-1.2-17.9c0-11,0.1-13,1.2-17.9c7.3-33.4,30.4-59.7,61.5-70.1c11.7-3.9,15.7-4.5,29.8-4.5c10.9,0,13.1,0.1,17.9,1.2c18.8,4.1,34.8,12.7,47.7,25.7c16.1,16,26,38,27,59.7l0.3,6.4l2.7,0.3c4.7,0.5,11.9,2.9,16.9,5.5l4.8,2.5l0.3-4.1c0.3-4.7-0.3-16.9-1.2-22.7c-6.4-41.2-34.3-76.2-73.3-91.8C155.7,3.7,137.1,0.8,120,2z"/><path fill="#000000" d="M125.4,44.2c-2.3,0.7-4.8,3.3-5.4,5.6c-0.3,1.1-2.1,15.2-4.1,31.4l-3.6,29.4l-6.1,4.5c-20.5,15.3-41.1,31.1-42.7,32.6c-1.7,1.7-1.8,2-1.8,5.5c0,3.4,0.1,3.7,1.8,5.5c2.2,2.2,5.1,3.2,7.5,2.4c0.9-0.3,10.2-4.1,20.7-8.5c10.4-4.4,24.8-10.5,31.9-13.4c16.2-6.9,18.4-8.5,20.3-15.8c0.8-3.1,0.7-3.7-3.6-38.7c-3.4-26.9-4.7-36-5.4-37.1C133.1,44.7,128.8,43.1,125.4,44.2z"/><path fill="#000000" d="M205.7,128.5c-12.2,1.2-22.7,6.2-26,12.3c-1.1,2.1-1.1,5.9,0.1,8c3.9,7.3,16.7,12.3,31.7,12.4c14,0.1,25-3.3,30.8-9.4c5.1-5.4,4.6-10.4-1.5-15.9c-3.9-3.4-13.1-6.6-22.2-7.5C213,127.9,211.8,127.9,205.7,128.5z"/><path fill="#000000" d="M178.5,160.9c0,8.1,1.2,10.8,6.4,14.4c11.3,8,32.9,9.5,48.4,3.4c6.1-2.4,11.1-6.7,12.1-10.6c0.3-1.1,0.6-4.4,0.6-7.3c-0.1-5-0.1-5.2-0.8-3.6c-1.8,4.3-9.4,9-18.2,11.3c-4,1.1-5.6,1.2-15,1.2c-9.1,0-11.1-0.2-14.8-1.2c-8.5-2.3-16.1-7.1-17.9-11.3C178.6,155.8,178.5,156,178.5,160.9z"/><path fill="#000000" d="M178.6,183.1c0.2,7.2,0.6,8.4,4.1,11.8c5.5,5.2,16.5,8.5,28.7,8.6c14,0.1,25-3.3,30.8-9.4c3.2-3.3,3.7-5.2,3.7-12.1c-0.1-5-0.1-5.2-0.8-3.6c-1.8,4.2-9.4,9-17.9,11.3c-3.7,1-5.5,1.2-15,1.2c-9.5,0-11.3-0.2-15-1.2c-8.7-2.4-16-7-18-11.3C178.5,176.9,178.5,177.2,178.6,183.1z"/><path fill="#000000" d="M138.1,179.2c-12.1,1.2-22.8,6.2-25.9,12.2c-1.1,2.1-1.1,6-0.1,8c6.2,11.7,33.4,16.4,53.1,9.2c6.3-2.3,11.6-6.9,12.7-11c1.4-5.1-2.2-10.2-9.8-14c-4.7-2.4-10.6-3.9-17.6-4.5C144.5,178.5,144.3,178.5,138.1,179.2z"/><path fill="#000000" d="M178.5,202c0,2.3-0.3,4.9-0.7,5.8c-1.8,4.3-9.3,9.2-18,11.6c-3.7,1-5.5,1.2-15,1.2s-11.3-0.2-15-1.2c-8.5-2.3-16.1-7.1-17.9-11.3c-0.7-1.6-0.7-1.4-0.8,3.6c0,6.9,0.6,8.8,3.7,12.1c9.2,9.8,33.9,12.6,51.1,5.8c4.4-1.7,6.7-3.3,9.4-6.2c2.6-2.8,3.3-5,3.4-10.4c0.1-3.1,0.2-3.6,0.5-2.4c2.8,9.2,21,15.8,39,14c11.9-1.2,19.9-4.4,24.9-9.9c2.5-2.7,3.1-5,3.1-11.4c-0.1-5-0.1-5.2-0.8-3.6c-1.8,4.3-9.4,9-18.2,11.3c-4,1.1-5.6,1.2-15,1.2c-9.1,0-11.1-0.2-14.8-1.2c-8.5-2.3-16.1-7.1-17.9-11.3C178.5,197.9,178.5,198,178.5,202z"/><path fill="#000000" d="M178.5,223.1c0,2.3-0.3,4.9-0.7,5.9c-1.8,4.3-9.3,9.1-18,11.4c-3.7,1-5.5,1.2-15,1.2s-11.3-0.2-15-1.2c-8.7-2.4-16-7-18-11.3c-0.7-1.6-0.7-1.2-0.6,4.6c0.2,7.1,0.5,8.2,4.1,11.7c6.3,6.2,21.5,9.9,35.1,8.6c11.7-1.1,19.8-4.2,24.7-9.4c2.8-3,3.5-5.2,3.5-10.6c0.1-3.9,0.1-3.9,0.7-2.1c2.9,8.1,16,13.7,32.2,13.8c14,0.1,25-3.3,30.8-9.4c3.2-3.3,3.7-5.2,3.7-12.1c-0.1-5-0.1-5.2-0.8-3.6c-1.8,4.2-9.4,9-17.9,11.3c-3.7,1-5.5,1.2-15,1.2c-9.5,0-11.3-0.2-15-1.2c-8.7-2.4-16.1-7.1-17.9-11.3C178.5,219,178.5,219.1,178.5,223.1z"/></g></g></g>
</svg>